<?xml version="1.0" encoding="utf-8"?>
<!-- Generator: Adobe Illustrator 22.1.0, SVG Export Plug-In . SVG Version: 6.00 Build 0)  -->
<svg version="1.1" id="Layer_1" xmlns="http://www.w3.org/2000/svg" xmlns:xlink="http://www.w3.org/1999/xlink" x="0px" y="0px"
	 viewBox="0 0 512 512" style="enable-background:new 0 0 512 512;" xml:space="preserve">
<style type="text/css">
	.st0{fill:#663399;}
</style>
<g>
	<g>
		<path class="st0" d="M410.3,243.1c-3.6-4.5-10.2-5.2-14.7-1.5l-3.6,2.9c-4.5,3.6-5.2,10.2-1.5,14.7c2.1,2.6,5.1,3.9,8.1,3.9
			c2.3,0,4.6-0.8,6.6-2.3l3.6-2.9C413.2,254.2,413.9,247.6,410.3,243.1z"/>
	</g>
</g>
<g>
	<g>
		<path class="st0" d="M380.4,267.4c-3.6-4.5-10.2-5.2-14.7-1.5L291,325.5c-4.5,3.6-5.2,10.2-1.5,14.7c2.1,2.6,5.1,3.9,8.1,3.9
			c2.3,0,4.6-0.8,6.6-2.3l74.7-59.7C383.3,278.4,384,271.8,380.4,267.4z"/>
	</g>
</g>
<g>
	<g>
		<path class="st0" d="M449.7,62.7H62.3C27.9,62.7,0,90.6,0,124.9v262.1c0,34.3,27.9,62.3,62.3,62.3h387.5
			c34.3,0,62.3-27.9,62.3-62.3V124.9C512,90.6,484.1,62.7,449.7,62.7z M419.9,83.6L255.9,216.2L91.8,83.6H419.9z M428.1,428.4H83.6
			v-244l165.7,133.5c3.8,3.1,9.3,3.1,13.1,0l165.7-133.5L428.1,428.4L428.1,428.4z M491.1,387.1c0,22.8-18.6,41.4-41.4,41.4H449
			V162.5c0-4-2.3-7.7-5.9-9.4c-3.6-1.7-7.9-1.2-11.1,1.3L255.9,296.3L79.7,154.4c-3.1-2.5-7.4-3-11.1-1.3c-3.6,1.7-5.9,5.4-5.9,9.4
			v265.9h-0.4c-22.8,0-41.4-18.6-41.4-41.4V124.9c0-21.6,16.7-39.4,37.9-41.2l190.5,154c1.9,1.5,4.2,2.3,6.6,2.3
			c2.3,0,4.7-0.8,6.6-2.3L453,83.7c21.3,1.7,38.1,19.5,38.1,41.2V387.1z"/>
	</g>
</g>
</svg>
