<svg id="Line" height="512" viewBox="0 0 64 64" width="512" xmlns="http://www.w3.org/2000/svg"><path d="m38.52 32.41-4.86 1.62a.989.989 0 0 0 -.63.63l-1.62 4.86-5.93-13.04z" fill="none"/><path d="m25.48 26.48 13.04 5.93-4.86 1.62a.989.989 0 0 0 -.63.63l-1.62 4.86z" fill="#c4a2fc"/><path d="m60.568 47.96-12.089-8.27 8.04-8.049a1 1 0 0 0 -.39-1.65l-38.807-12.94a1 1 0 0 0 -1.27 1.27l12.939 38.809a1 1 0 0 0 1.65.389l8.049-8.039 8.27 12.089a3.29 3.29 0 0 0 5.039.47l9.039-9.039a3.29 3.29 0 0 0 -.47-5.04zm-18.998-14.46-6.8 2.269-2.27 6.8a1 1 0 0 1 -1.86.1l-8.078-17.788a1 1 0 0 1 1.32-1.32l17.788 8.08a1 1 0 0 1 -.1 1.859z" fill="#c4a2fc"/><g fill="#151a6a"><path d="m45 14h-7.674l1.429-5h2.245a1 1 0 0 0 0-2h-7.586l-5.707-5.707a1 1 0 0 0 -1.414 1.414l4.293 4.293h-11.172l4.293-4.293a1 1 0 0 0 -1.414-1.414l-5.707 5.707h-7.586a1 1 0 0 0 0 2h2.245l1.429 5h-7.674a3 3 0 0 0 -3 3v23a3 3 0 0 0 3 3h12.382l-1.829 3.658a3 3 0 0 0 2.683 4.342h13.528a3 3 0 0 0 2.683-4.342l-1.829-3.658h12.382a3 3 0 0 0 3-3v-23a3 3 0 0 0 -3-3zm-8.326-5-3.222 11.275a1 1 0 0 1 -.961.725h-14.982a1 1 0 0 1 -.961-.726l-3.222-11.274zm-31.674 7h8.246l1.378 4.824a3.013 3.013 0 0 0 2.885 2.176h14.982a3.013 3.013 0 0 0 2.885-2.176l1.378-4.824h8.246a1 1 0 0 1 1 1v18h-42v-18a1 1 0 0 1 1-1zm27.658 31.553a1 1 0 0 1 -.894 1.447h-13.528a1 1 0 0 1 -.894-1.447l2.276-4.553h10.764zm12.342-6.553h-40a1 1 0 0 1 -1-1v-3h42v3a1 1 0 0 1 -1 1z"/><path d="m9 31h32a1 1 0 0 0 0-2h-32a1 1 0 0 0 0 2z"/></g></svg>