<svg id="Line" height="512" viewBox="0 0 64 64" width="512" xmlns="http://www.w3.org/2000/svg"><g fill="#c4a2fc"><path d="m32 39h30a1 1 0 0 0 1-1v-8a1 1 0 0 0 -1-1h-3.026a4.949 4.949 0 0 0 .731-4.709 4.7 4.7 0 0 0 -1.333-1.98 5 5 0 0 0 -7.372.689l-4 5.334-3.855-5.141a5.947 5.947 0 0 0 -4.321-2.193 5.006 5.006 0 0 0 -4.824 5 4.948 4.948 0 0 0 1.026 3h-3.026a1 1 0 0 0 -1 1v8a1 1 0 0 0 1 1zm20.6-14.8a3 3 0 1 1 2.4 4.8h-6zm-13.6-1.2a3.016 3.016 0 0 1 2.4 1.2l3.6 4.8h-6a3 3 0 0 1 0-6z"/><path d="m45 41h4v8h-4z"/><path d="m51 50a1 1 0 0 1 -1 1h-6a1 1 0 0 1 -1-1v-9h-11v19a3 3 0 0 0 3 3h24a3 3 0 0 0 3-3v-19h-11z"/><path d="m15 31h12a1 1 0 0 0 0-2h-12a1 1 0 0 0 0 2z"/><path d="m15 39h12a1 1 0 0 0 0-2h-12a1 1 0 0 0 0 2z"/><path d="m29 45h-14a1 1 0 0 0 0 2h14a1 1 0 0 0 0-2z"/><path d="m29 53h-14a1 1 0 0 0 0 2h14a1 1 0 0 0 0-2z"/></g><path d="m26 13a1 1 0 0 0 0-2h-21a1 1 0 0 0 0 2z" fill="#151a6a"/><path d="m26 8a1 1 0 0 0 0-2h-22a1 1 0 0 0 0 2z" fill="#151a6a"/><path d="m50.121 16.707-6.828-6.828a2.982 2.982 0 0 0 -2.121-.879h-6.172v-5a3 3 0 0 0 -3-3h-30a1 1 0 0 0 0 2h30a1 1 0 0 1 1 1v29h-21a1 1 0 0 1 -1-1v-14h15a1 1 0 0 0 0-2h-20a1 1 0 0 0 0 2h3v14a3 3 0 0 0 3 3h4.026a4.948 4.948 0 0 0 -1.026 3 5 5 0 0 0 10 0 4.948 4.948 0 0 0 -1.026-3h14.052a4.948 4.948 0 0 0 -1.026 3 5 5 0 0 0 10 0 4.948 4.948 0 0 0 -1.026-3h2.026a3 3 0 0 0 3-3v-13.172a2.982 2.982 0 0 0 -.879-2.121zm-27.121 21.293a3 3 0 1 1 -3-3 3 3 0 0 1 3 3zm22 0a3 3 0 1 1 -3-3 3 3 0 0 1 3 3zm4-6a1 1 0 0 1 -1 1h-13v-22h6.172a1 1 0 0 1 .707.293l6.828 6.828a1 1 0 0 1 .293.707z" fill="#151a6a"/><path d="m40.707 13.293a1 1 0 0 0 -.707-.293h-2a1 1 0 0 0 -1 1v10a1 1 0 0 0 1 1h8a1 1 0 0 0 1-1v-4a1 1 0 0 0 -.293-.707zm4.293 9.707h-6v-8h.586l5.414 5.414z" fill="#151a6a"/></svg>