<svg xmlns="http://www.w3.org/2000/svg" viewBox="0 0 537.88 514.87"><defs><style>.cls-1{fill:#7e3795;}.cls-2{fill:#a187be;}.cls-3{fill:#ffc62c;}.cls-4{fill:#f49c27;}.cls-5{fill:#db226f;}.cls-6{fill:#ff0079;}.cls-7{fill:#bcbcbc;}.cls-8{fill:#a8a8a8;}.cls-9{fill:#c9c9c9;}.cls-10{fill:#4dbfd9;}</style></defs><title>Recurso 2</title><g id="Capa_2" data-name="Capa 2"><g id="Layer_1" data-name="Layer 1"><circle class="cls-1" cx="249.75" cy="265.12" r="249.75"/><circle class="cls-2" cx="249.75" cy="265.12" r="222.74"/><path class="cls-3" d="M244.58,159.24,194.41,98.3,67.47,202.79,156.8,311.31C177.3,242.21,225.4,181.54,244.58,159.24Z"/><path class="cls-4" d="M345.26,281.54,244.58,159.24c-19.18,22.3-67.28,83-87.78,152.07L218.33,386Z"/><path class="cls-5" d="M396.89,327.44,337.7,162.71C256.5,198.53,224.91,270.2,214.05,304.8L242.16,383Z"/><path class="cls-6" d="M316.63,104.07,161.9,159.67,214.05,304.8c10.86-34.6,42.45-106.27,123.65-142.09ZM250.94,216.56c-12.47,10.13-49.63,6.84-49.63,6.84s-20.85-31.74-16.65-47.24c9.77-36.16,48.2-18,43.63,3C245.45,165,278.21,194.41,250.94,216.56Z"/><path class="cls-4" d="M395.62,244.18s23.6,9.59,33.77,5.48c22.25-9,6.76-34.78-7.29-29"/><path class="cls-3" d="M419.85,209.77s-18-3.54-24.58.76c-14.47,9.4,0,25.47,9.11,19.44"/><path class="cls-7" d="M338.07,244.41l9.89-5.65c-8.34-2.18-23.54-1.62-45.08,17.06-34.36,29.79-83.09,89.57-83.09,89.57s15.87,15.18,1.2,29.91c3.43,2,11.94,12.59,11.94,12.59s21.71-21.68,9.85-41.83l-7.47-4.36S317.48,256.16,338.07,244.41Z"/><path class="cls-8" d="M355.47,242.32a19.39,19.39,0,0,0-7.51-3.56l-9.89,5.65c-20.59,11.75-102.76,97.29-102.76,97.29l7.47,4.36c-.3-.51-.6-1-.95-1.53Z"/><path class="cls-9" d="M237.94,338.93c-.07-.06-.1,0-.1,0a9.09,9.09,0,0,0-2.39-1.74c-26.9-17.54-44.62-1.42-44.62-1.42s6.95,10.64,7.59,14.55c21.41-12.16,28.79,11.58,28.79,11.58s76.8-28.3,118.13-47.26c20.91-9.59,28.63-19.61,31.8-28,3.1-8.26,1.36-13.88,1.36-13.88Z"/><path class="cls-8" d="M237.56,346a6.06,6.06,0,1,1-8.18-2.57A6.06,6.06,0,0,1,237.56,346Z"/><path class="cls-10" d="M205.45,351.65c0-9.66-6.26-20.59-11.09-25.64-13.78-14.4-63,6.86-79.45,26.66-13.79,16.56,5.08,41.38,17.17,46.43C150.52,406.82,205.48,367.76,205.45,351.65Zm-20.68,10.79c-8.69,7.5-25.89,18.95-37.85,20.73-12.68,1.9-22.42-11.63-21.57-21.16,1-10.76,42.08-28.92,52.9-27.59S196.62,352.2,184.77,362.44Z"/><path class="cls-10" d="M240,390.83c-3.4-6.09-12.26-14.59-21.26-18.11-15.05-5.88-50.07,22.25-63.07,48.86C150,433.35,171.4,467.31,191.28,459,215,449,249.78,408.23,240,390.83Zm-11.48,9.77c-2.2,16-32.58,47.89-43.16,45.66-9.36-2-17.44-16.25-11.91-27.81,5.21-10.91,19.2-23,28.92-29.12C215.67,381,230.05,389.81,228.56,400.6Z"/><path class="cls-5" d="M417.16,184.25c-12.4,10.07-49.34,6.8-49.34,6.8s-20.72-31.55-16.56-47c9.72-35.94,47.93-17.94,43.38,3C411.71,133,444.27,162.23,417.16,184.25Z"/><path class="cls-6" d="M367.48,191.52s37.32,3,49.74-7.29c27.18-22.47-6-51.74-23.05-37.36"/><path class="cls-3" d="M443.86,36.18c3.58,26.5-33.31,76.44-33.31,76.44S347.38,114.73,329,95.33c-42.9-45.24,16.16-84.14,42.08-59.41C365.79-.75,436-21.78,443.86,36.18Z"/><path class="cls-4" d="M410.92,113.53s36.81-50.74,33-77.46c-8.42-58.44-79.13-36.61-73.49.37"/><path class="cls-3" d="M528.63,266.11c-12.38,12.56-53.31,13.47-53.31,13.47s-26.58-32.1-23.88-49.52c6.28-40.63,50.4-25.52,48-2C516.4,210.5,555.7,238.64,528.63,266.11Z"/><path class="cls-4" d="M475,280.13s41.31-1.27,53.69-14.05c27.09-28-12.82-56-29.84-38.18"/><path class="cls-6" d="M495.05,119.05c-5.77,4.69-23,3.16-23,3.16s-9.66-14.69-7.72-21.87c4.53-16.74,22.33-8.36,20.21,1.38C492.51,95.16,507.68,108.79,495.05,119.05Z"/><path class="cls-5" d="M471.91,122.43s17.39,1.39,23.17-3.4c12.66-10.46-2.77-24.09-10.73-17.39"/><path class="cls-2" d="M164.71,239c-12.4,10.07-49.34,6.8-49.34,6.8s-20.73-31.55-16.56-47c9.72-36,47.93-17.94,43.38,3C159.25,187.68,191.82,216.94,164.71,239Z"/><path class="cls-2" d="M180.26,118.85c2.49-4.94,14.62-9.15,14.62-9.15s11,7,11.9,12.47c2,12.73-12.59,12.48-14.12,5.23C189.28,134.28,174.83,129.66,180.26,118.85Z"/></g></g></svg>