<svg id="Icons" height="512" viewBox="0 0 64 64" width="512" xmlns="http://www.w3.org/2000/svg"><path d="m38.2 33.647a3.121 3.121 0 0 0 -2.546 1.794 7.09 7.09 0 0 0 -.937 3.431 2.124 2.124 0 0 0 .483 1.518 1.716 1.716 0 0 0 1.307.515c3.129 0 5.855-7.258 1.693-7.258z" fill="#c4a2fc"/><path d="m38 12.5a25 25 0 1 0 25 25 25.028 25.028 0 0 0 -25-25zm9.805 27.89c-2.558 3.614-6.791 3.586-8 1.333a2.351 2.351 0 0 1 -.216-.607 3.956 3.956 0 0 1 -2.159 1.874 4.051 4.051 0 0 1 -5.107-1.743 4.53 4.53 0 0 1 -.568-2.322 8.908 8.908 0 0 1 1.835-5.067 5.709 5.709 0 0 1 4.472-2.587 2.917 2.917 0 0 1 2.717 1.835l.108-.7a1.32 1.32 0 0 1 1.451-1.056c1.041 0 1.607.4 1.4 1.558l-1.055 6.65a1.591 1.591 0 0 0 .211 1.294c.84.969 2.534.161 3.549-1.821a10.732 10.732 0 0 0 1.122-4.751 5.793 5.793 0 0 0 -3.338-5.437c-2.419-1.2-6-.895-8.472-.039a10.567 10.567 0 0 0 -6.4 5.74 11.272 11.272 0 0 0 -.488 7.535 6.691 6.691 0 0 0 3.762 4.221 11.566 11.566 0 0 0 6.044.448 10.47 10.47 0 0 0 3.457-1.359.833.833 0 0 1 1.294.5q.316.792-.924 1.426a25.587 25.587 0 0 1 -2.613 1.135 12.622 12.622 0 0 1 -8.235-.277 8.535 8.535 0 0 1 -4.777-5.358 13.288 13.288 0 0 1 .542-9.066 12.712 12.712 0 0 1 7.534-6.849c3.16-1.125 7.649-1.387 10.584.211a7.861 7.861 0 0 1 4.144 7.165 10.768 10.768 0 0 1 -1.874 6.114z" fill="#c4a2fc"/><g fill="#151a6a"><path d="m49.664 17.074-4.664-3.109v-6.465a1 1 0 0 0 -1-1h-10.2l-7.245-4.832a1 1 0 0 0 -1.11 0l-7.245 4.832h-10.2a1 1 0 0 0 -1 1v6.465l-4.664 3.109a3.044 3.044 0 0 0 -1.336 2.496v28.93a3 3 0 0 0 3 3h44a3 3 0 0 0 3-3v-28.93a3.042 3.042 0 0 0 -1.336-2.496zm-1.464 1.426-3.2 2.132v-4.264zm-22.2-14.8 4.2 2.8h-8.4zm17 4.8v13.465l-17 11.335-17-11.335v-13.465zm-36 12.131-3.2-2.131 3.2-2.132zm41 28.869h-44a1 1 0 0 1 -1-1v-28.132l22.445 14.964a1 1 0 0 0 1.11 0l22.445-14.963v28.131a1 1 0 0 1 -1 1z"/><path d="m13 14.5h26a1 1 0 0 0 0-2h-26a1 1 0 0 0 0 2z"/><path d="m13 20.5h26a1 1 0 0 0 0-2h-26a1 1 0 0 0 0 2z"/></g></svg>